<svg xmlns="http://www.w3.org/2000/svg" width="715" height="688" viewBox="0 0 715 688" xmlns:xlink="http://www.w3.org/1999/xlink"><path d="M558.77,460.48l26.94,46.66,26.94,46.66h-107.77l26.94-46.66Z" transform="translate(-242.15 -105.81)" fill="#a32afd"/><rect x="50.5" y="263" width="113" height="113" fill="#e6e6e6"/><circle cx="244.5" cy="118.5" r="72.5" fill="#a32afd"/><path d="M551.90,345.37a12,12,0,1,1,12,12A12,12,0,0,1,551.90,345.37Zm2,0a10,10,0,1,0,10-10A10,10,0,0,0,553.90,345.37Z" transform="translate(-242.15 -105.81)" fill="#ccc"/><path d="M448.59,554.11l-17.66-18.93,18.93-17.66,17.66,18.93Zm-14.84-18.84,14.94,16.02,16.02-14.94-14.94-16.02Z" transform="translate(-242.15 -105.81)" fill="#ccc"/><path d="M302.70,284.70l-14.37-15.41,15.41-14.37,14.37,15.41Zm-12.08-15.33,12.16,13.04,13.04-12.16-12.16-13.04Z" transform="translate(-242.15 -105.81)" fill="#ccc"/><path d="M504.65,305.81a100,100,0,1,1,100-100A100,100,0,0,1,504.65,305.81Zm0-198a98,98,0,1,0,98,98A98,98,0,0,0,504.65,107.81Z" transform="translate(-242.15 -105.81)" fill="#3f3d56"/><rect x="401.26" y="309.93" width="59.64" height="2" transform="translate(-278.03 459.01) rotate(-64.33)" fill="#3f3d56"/><rect x="492.55" y="375.91" width="2" height="129.38" transform="translate(-371.01 559.14) rotate(-61.57)" fill="#3f3d56"/><path d="M437.65,482.81h-146v-146h146Zm-144-2h142v-142h-142Z" transform="translate(-242.15 -105.81)" fill="#3f3d56"/><path d="M654.16,554.81h-151.01l75.50-130.78Zm-147.55-2h144.09l-72.04-124.78Z" transform="translate(-242.15 -105.81)" fill="#3f3d56"/><rect y="686" width="715" height="2" fill="#e6e6e6"/><path d="M448.46,729.44a31.40,31.40,0,0,0,30.32-5.34c10.62-8.91,13.95-23.6,16.66-37.2l8.01-40.22-16.78,11.55c-12.06,8.30-24.40,16.88-32.76,28.92s-12,28.46-5.28,41.48" transform="translate(-242.15 -105.81)" fill="#e6e6e6"/><path d="M451.05,780.95c-2.11-15.38-4.28-30.97-2.8-46.52,1.31-13.81,5.53-27.3,14.10-38.36a63.81,63.81,0,0,1,16.37-14.83c1.63-1.03,3.14,1.56,1.51,2.59a60.67,60.67,0,0,0-24,28.95c-5.22,13.28-6.06,27.77-5.16,41.89.544,8.53,1.7,17.01,2.86,25.48a1.55,1.55,0,0,1-1.04,1.84,1.50,1.50,0,0,1-1.84-1.04Z" transform="translate(-242.15 -105.81)" fill="#f2f2f2"/><path d="M590.85,759.75a22.26,22.26,0,0,0,20.46,7.60c9.69-1.64,17-9.43,23.52-16.77l19.32-21.72-14.4,1.05c-10.35.755-20.98,1.57-30.4,5.94s-17.54,13.1-18.10,23.47" transform="translate(-242.15 -105.81)" fill="#e6e6e6"/><path d="M574.26,790.05c3.4-8.17,6.82-16.46,12.03-23.68,4.62-6.41,10.58-11.83,18-14.8a36.37,36.37,0,0,1,12.32-2.57c1.1-.036,1.1,1.67,0,1.71a34.57,34.57,0,0,0-20.14,7.31c-6.4,5.02-10.98,11.90-14.61,19.10-2.19,4.35-4.07,8.85-5.94,13.35a.886.88,0,0,1-1.04.605.86.86,0,0,1-.605-1.04Z" transform="translate(-242.15 -105.81)" fill="#f2f2f2"/><path d="M466.25,756.26a23.11,23.11,0,0,0,20.14,10.4c10.2-.484,18.7-7.6,26.35-14.35l22.63-19.98-14.98-.717c-10.77-.516-21.82-1-32.08,2.32s-19.72,11.31-21.6,21.93" transform="translate(-242.15 -105.81)" fill="#e6e6e6"/><path d="M445.08,789.79c10.16-17.99,21.96-37.98,43.03-44.37a48.02,48.02,0,0,1,18.1-1.86c1.92.166,1.44,3.12-.476,2.96a44.61,44.61,0,0,0-28.88,7.64c-8.14,5.54-14.48,13.25-19.85,21.42-3.28,5.00-6.23,10.22-9.17,15.43C446.88,792.68,444.13,791.48,445.08,789.79Z" transform="translate(-242.15 -105.81)" fill="#f2f2f2"/><path d="M265.64,757.93a22.72,22.72,0,0,0,21.94-3.86c7.68-6.45,10.1-17.08,12.05-26.92l5.8-29.11-12.14,8.36c-8.73,6.01-17.66,12.21-23.70,20.92s-8.68,20.6-3.82,30.02" transform="translate(-242.15 -105.81)" fill="#e6e6e6"/><path d="M266.68,793.17c-1.22-8.95-2.49-18.02-1.63-27.06.766-8.03,3.21-15.88,8.20-22.32a37.13,37.13,0,0,1,9.52-8.63c.953-.6,1.82.909.88,1.50a35.29,35.29,0,0,0-13.96,16.84c-3.04,7.73-3.52,16.16-3,24.37.317,4.96.988,9.9,1.66,14.83a.9.9,0,0,1-.61,1.07.878.87,0,0,1-1.07-.61Z" transform="translate(-242.15 -105.81)" fill="#f2f2f2"/><path d="M357.13,793.26c-.264-.431-6.48-10.81-8.64-32.38-1.97-19.78-.706-53.14,16.59-99.67,32.77-88.14-7.55-159.26-7.96-159.97l1.98-1.15c.1.18,10.51,18.31,16.65,47.18a205.85,205.85,0,0,1-8.52,114.74c-32.71,87.99-8.39,129.64-8.14,130.06Z" transform="translate(-242.15 -105.81)" fill="#3f3d56"/><circle cx="149.29" cy="430.47" r="14.94" fill="#a32afd"/><circle cx="105.61" cy="546.59" r="14.94" fill="#a32afd"/><path d="M364.77,792.82s-12.75-31.39,25.50-54.93Z" transform="translate(-242.15 -105.81)" fill="#e6e6e6"/><path d="M349.08,792.24s-3.89-22.37-34-22.18Z" transform="translate(-242.15 -105.81)" fill="#e6e6e6"/><path d="M383.90,610.18a12,12,0,1,1,12,12A12,12,0,0,1,383.90,610.18Zm2,0a10,10,0,1,0,10-10A10,10,0,0,0,385.90,610.18Z" transform="translate(-242.15 -105.81)" fill="#ccc"/><path d="M347.76,573.14a12,12,0,1,1,12,12A12,12,0,0,1,347.76,573.14Zm2,0a10,10,0,1,0,10-10A10,10,0,0,0,349.76,573.14Z" transform="translate(-242.15 -105.81)" fill="#ccc"/><g data-name="girl ideation"><path d="M880.07,544.43a12.45,12.45,0,0,1-10.45,1.92h0a12.43,12.43,0,0,1-8.82-15.21q.06464-.24312.13-.48346a11.99,11.99,0,0,1,.684-1.7l-24.45-109.78a9.95,9.95,0,1,1,19.08-5.69q.03066.10.05908.20l23.08,110.11a12.42,12.42,0,0,1,.683,20.64Z" transform="translate(-242.15 -105.81)" fill="#9f616a"/><path d="M912.54,779.96h-13.26l-6.31-51.15h19.57Z" transform="translate(-242.15 -105.81)" fill="#a0616a"/><path d="M915.92,792.81h-42.76v-.541a16.64,16.64,0,0,1,16.64-16.64h26.12Z" transform="translate(-242.15 -105.81)" fill="#2f2e41"/><path d="M779.58,779.54l-12.61-4.08,9.74-50.61,18.62,6.02Z" transform="translate(-242.15 -105.81)" fill="#a0616a"/><path d="M778.84,792.81l-40.68-13.16.166-.515a16.64,16.64,0,0,1,20.95-10.71h0l24.85,8.03Z" transform="translate(-242.15 -105.81)" fill="#2f2e41"/><circle cx="596.92" cy="261.35" r="22.37" fill="#9f616a"/><path d="M869.16,454.15c3.11-11.55-11.13-47.8-12.3-52.4-5.55-1.28-18.42,1.17-26.33-.453-11.25,9.4-20.2,22.82-26.38,29.2-6.43,6.62-10.57,11.11-3.93,26.62,8.05,18.79,6.26,38.48,6.26,38.48l5.37,47.43s-22.37,62.64-20.58,104.71l-20.58,102.92s6.26,10.74,18.79,5.37c0,0,29.53-52.8,26.85-91.28l32.22-71.6s22.37,68.01,28.64,74.28l16.11,96.65s15.21,4.47,22.37,0c0,0,2.68-93.07-12.53-108.29,0,0-15.21-64.43-11.63-81.44s4.47-42.95-22.37-66.22c0,0,.27.12-8.05-15.21Z" transform="translate(-242.15 -105.81)" fill="#2f2e41"/><path d="M850.75,332.59h0a19.36,19.36,0,0,0-3.73.372,16.37,16.37,0,0,0-7.13-1.64h-.648c-12.48,0-22.60,11.3-22.60,25.23h4.18l.676-5.14.99,5.14h3.48a49.32,49.32,0,0,0-1.61,12.64v25.68h6.32l3.66-9.51-.916,9.51h40.65l3.32-8.65-.832,8.65h4.57v-20.16C881.14,351.45,867.53,332.59,850.75,332.59Z" transform="translate(-242.15 -105.81)" fill="#2f2e41"/><path d="M804.10,557.14a12.44,12.44,0,0,1-10.17-3.06h0a12.43,12.43,0,0,1-.907-17.56q.17019-.18873.34-.37042a11.99,11.99,0,0,1,1.38-1.2l28.35-108.83a9.95,9.95,0,0,1,19.58,3.62q-.02079.11-.04407.22l-29.72,108.50a12.42,12.42,0,0,1-8.81,18.67Z" transform="translate(-242.15 -105.81)" fill="#9f616a"/></g></svg>